<?xml version="1.0" encoding="utf-8" ?>
<svg baseProfile="full" height="343px" version="1.1" viewBox="0 0 345 343" width="345px" xmlns="http://www.w3.org/2000/svg" xmlns:ev="http://www.w3.org/2001/xml-events" xmlns:xlink="http://www.w3.org/1999/xlink"><title>Mathematical Diagram</title><desc>Generated by PNG2SVG system</desc><defs><marker id="arrow" markerHeight="8" markerUnits="strokeWidth" markerWidth="8" orient="auto" refX="8" refY="4"><path d="M0,0 L8,4 L0,8 L3,4 z" fill="black" /></marker><marker id="right_angle" markerHeight="10" markerUnits="userSpaceOnUse" markerWidth="10" refX="0" refY="0"><rect fill="none" height="10" stroke="black" stroke-width="1" width="10" x="0" y="0" /></marker><pattern height="10" id="tick_1" patternUnits="userSpaceOnUse" width="20"><line stroke="black" stroke-width="1" x1="5" x2="5" y1="0" y2="10" /></pattern><pattern height="10" id="tick_2" patternUnits="userSpaceOnUse" width="20"><line stroke="black" stroke-width="1" x1="5" x2="5" y1="0" y2="10" /><line stroke="black" stroke-width="1" x1="9" x2="9" y1="0" y2="10" /></pattern><pattern height="10" id="tick_3" patternUnits="userSpaceOnUse" width="20"><line stroke="black" stroke-width="1" x1="5" x2="5" y1="0" y2="10" /><line stroke="black" stroke-width="1" x1="9" x2="9" y1="0" y2="10" /><line stroke="black" stroke-width="1" x1="13" x2="13" y1="0" y2="10" /></pattern><style type="text/css"><![CDATA[
        .dashed { stroke-dasharray: 6,6; }
        .dotted { stroke-dasharray: 2,2; }
        .hidden { stroke-dasharray: 4,2; opacity: 0.5; }
        .thick { stroke-width: 3; }
        .thin { stroke-width: 1; }
        .label { font-family: Arial, sans-serif; font-size: 14px; }
        .angle-label { font-size: 12px; font-style: italic; }
        .length-label { font-size: 11px; }
    ]]></style></defs><defs><marker id="arrow" markerHeight="8" markerUnits="strokeWidth" markerWidth="8" orient="auto" refX="8" refY="4"><path d="M0,0 L8,4 L0,8 L3,4 z" fill="black" /></marker><marker id="right_angle" markerHeight="10" markerUnits="userSpaceOnUse" markerWidth="10" refX="0" refY="0"><rect fill="none" height="10" stroke="black" stroke-width="1" width="10" x="0" y="0" /></marker><pattern height="10" id="tick_1" patternUnits="userSpaceOnUse" width="20"><line stroke="black" stroke-width="1" x1="5" x2="5" y1="0" y2="10" /></pattern><pattern height="10" id="tick_2" patternUnits="userSpaceOnUse" width="20"><line stroke="black" stroke-width="1" x1="5" x2="5" y1="0" y2="10" /><line stroke="black" stroke-width="1" x1="9" x2="9" y1="0" y2="10" /></pattern><pattern height="10" id="tick_3" patternUnits="userSpaceOnUse" width="20"><line stroke="black" stroke-width="1" x1="5" x2="5" y1="0" y2="10" /><line stroke="black" stroke-width="1" x1="9" x2="9" y1="0" y2="10" /><line stroke="black" stroke-width="1" x1="13" x2="13" y1="0" y2="10" /></pattern><style type="text/css"><![CDATA[
        .dashed { stroke-dasharray: 6,6; }
        .dotted { stroke-dasharray: 2,2; }
        .hidden { stroke-dasharray: 4,2; opacity: 0.5; }
        .thick { stroke-width: 3; }
        .thin { stroke-width: 1; }
        .label { font-family: Arial, sans-serif; font-size: 14px; }
        .angle-label { font-size: 12px; font-style: italic; }
        .length-label { font-size: 11px; }
    ]]></style></defs><g fill="none" id="main" stroke="black" stroke-width="2"><line data-id="eeedaa17" data-role="main" x1="254.4935760498047" x2="247.33685302734375" y1="161.26551818847656" y2="130.5175018310547" /><line data-id="a9163504" data-role="main" x1="234.19729614257812" x2="321.0462646484375" y1="105.73207092285156" y2="249.87432861328125" /><line data-id="7ed5ecdd" data-role="main" x1="147.20388793945312" x2="173.55760192871094" y1="152.42771911621094" y2="164.85800170898438" /><line data-id="06eb54a0" data-role="main" x1="193.17889404296875" x2="153.1440887451172" y1="251.9486083984375" y2="252.78692626953125" /><line data-id="1246d195" data-role="main" x1="246.1956329345703" x2="226.8940887451172" y1="210.8689727783203" y2="234.3906707763672" /><line data-type="tick_mark" stroke="black" stroke-width="1" x1="281.9414937303844" x2="284.9021808043634" y1="233.33298754411786" y2="228.11433522287885" /><line data-id="df3c7299" data-role="main" data-tick-marks="1" x1="319.2868482429452" x2="247.55682629180265" y1="251.0708828244315" y2="210.3764399425652" /><line data-id="3d9373e2" data-role="main" x1="170.20692443847656" x2="204.54974365234375" y1="250.38929748535156" y2="189.4735107421875" /><line data-id="157e8850" data-role="main" x1="84.89924621582031" x2="104.39102172851562" y1="140.2003936767578" y2="106.8843765258789" /><line data-id="8f45b73c" data-role="main" x1="258.83856201171875" x2="248.8089599609375" y1="171.72425842285156" y2="207.4184112548828" /><line data-id="26e707a3" data-role="main" x1="243.68944625892905" x2="244.8031592804211" y1="131.86566133009242" y2="204.36763050421402" /><line data-id="23e66fd9" data-role="main" x1="239.37745211749015" x2="96.87579385393833" y1="123.92493850001757" y2="124.2770171055855" /><line data-id="30589730" data-role="main" x1="85.95305633544922" x2="94.30476379394531" y1="174.99192810058594" y2="204.3949432373047" /><line data-id="220698d8" data-role="main" x1="163.90760803222656" x2="95.30859375" y1="165.19679260253906" y2="126.18132019042969" /><line data-id="d5388501" data-role="main" x1="138.09500122070312" x2="168.1263885498047" y1="244.52281188964844" y2="250.6181640625" /><line data-id="c0ecf708" data-role="main" x1="226.6693878173828" x2="189.60183715820312" y1="235.21017456054688" y2="253.5826416015625" /><line data-id="60674571" data-role="main" x1="248.3905792236328" x2="254.33460998535156" y1="200.6849822998047" y2="174.36587524414062" /><line data-id="9fb40d54" data-role="main" x1="203.9298858642578" x2="174.704833984375" y1="187.66905212402344" y2="171.28659057617188" /><line data-id="a639f3dc" data-role="main" x1="177.9402682012579" x2="241.8629577544086" y1="247.81219407227016" y2="210.59949827422656" /><line data-id="f4bdd4a0" data-role="main" x1="241.48008728027344" x2="210.39202880859375" y1="131.10752868652344" y2="186.19891357421875" /><line data-id="05ef3663" data-role="main" x1="175.93148803710938" x2="204.74386596679688" y1="79.40731811523438" y2="86.65951538085938" /><line data-id="1666cf7f" data-role="main" x1="94.13780212402344" x2="85.63895416259766" y1="128.0563201904297" y2="157.40509033203125" /><line data-id="fe5c424d" data-role="main" x1="111.7879638671875" x2="136.1658935546875" y1="100.48583221435547" y2="85.2398681640625" /><line data-id="0fbd7b2b" data-role="main" x1="204.32467651367188" x2="234.68377685546875" y1="85.69613647460938" y2="107.17139434814453" /><line data-id="9679585f" data-role="main" x1="135.79229736328125" x2="113.34683227539062" y1="247.8873748779297" y2="232.08543395996094" /><line data-id="067ba572" data-role="main" x1="115.21727752685547" x2="141.69622802734375" y1="230.07174682617188" y2="245.5666046142578" /><line data-id="99c55deb" data-role="main" x1="313.7829895019531" x2="254.89601135253906" y1="244.7283172607422" y2="146.06007385253906" /><line data-id="adecfbf5" data-role="main" x1="219.5137939453125" x2="195.60935974121094" y1="99.10203552246094" y2="86.94739532470703" /><line data-id="2485382b" data-role="main" x1="240.6849365234375" x2="219.0458526611328" y1="120.56623840332031" y2="98.49650573730469" /><line data-id="187a39f9" data-role="main" x1="212.50437927246094" x2="239.94776916503906" y1="175.2706756591797" y2="127.20201110839844" /><line data-id="b7883d97" data-role="main" x1="207.64804077148438" x2="177.30224609375" y1="191.0630340576172" y2="244.61709594726562" /><line data-id="31cb467a" data-role="main" x1="209.60209968805154" x2="240.76884489761053" y1="188.97293190417145" y2="206.61983437025236" /><line data-id="07902778" data-role="main" x1="103.6594009399414" x2="147.5006866455078" y1="127.17135620117188" y2="151.7390899658203" /><circle cx="170.0" cy="167.0" data-id="5caf8aa5" data-role="main" r="87.0" /><circle cx="139.0" cy="185.0" data-id="e1b1c5b5" data-role="main" r="63.0" /><circle cx="193.0" cy="203.0" data-id="020547c2" data-role="main" r="45.0" /><circle cx="211.0" cy="169.0" data-id="8b81f28c" data-role="main" r="46.0" /><circle cx="139.0" cy="143.0" data-id="221cdaf0" data-role="main" r="48.0" /><circle cx="230.0" cy="251.0" data-id="dc186606" data-role="main" r="52.0" /><circle cx="166.0" cy="110.0" data-id="e6b34b97" data-role="main" r="50.0" /></g><g fill="none" id="auxiliary" stroke="gray" stroke-width="1"><line data-id="2b3ce847" data-role="aux" stroke-dasharray="6,6" x1="181.82286071777344" x2="210.75137329101562" y1="250.46543884277344" y2="241.01170349121094" /></g><g fill="none" id="symbols" stroke="black" stroke-width="1"><circle cx="254.4935760498047" cy="161.26551818847656" data-id="4644b446" data-kind="endpoint" fill="black" opacity="0.5" r="2" /><circle cx="247.33685302734375" cy="130.5175018310547" data-id="b831194e" data-kind="endpoint" fill="black" opacity="0.5" r="2" /><circle cx="234.19729614257812" cy="105.73207092285156" data-id="5c083566" data-kind="endpoint" fill="black" opacity="0.5" r="2" /><circle cx="321.0462646484375" cy="249.87432861328125" data-id="9556e4ab" data-kind="endpoint" fill="black" opacity="0.5" r="2" /><circle cx="147.20388793945312" cy="152.42771911621094" data-id="acd7b33d" data-kind="endpoint" fill="black" opacity="0.5" r="2" /><circle cx="173.55760192871094" cy="164.85800170898438" data-id="78c7f566" data-kind="endpoint" fill="black" opacity="0.5" r="2" /><circle cx="193.17889404296875" cy="251.9486083984375" data-id="16d8bd85" data-kind="endpoint" fill="black" opacity="0.5" r="2" /><circle cx="153.1440887451172" cy="252.78692626953125" data-id="70905b40" data-kind="endpoint" fill="black" opacity="0.5" r="2" /><circle cx="246.1956329345703" cy="210.8689727783203" data-id="aa9b6fa9" data-kind="endpoint" fill="black" opacity="0.5" r="2" /><circle cx="226.8940887451172" cy="234.3906707763672" data-id="25f2eb6c" data-kind="endpoint" fill="black" opacity="0.5" r="2" /><circle cx="319.2868482429452" cy="251.0708828244315" data-id="3c526d58" data-kind="endpoint" fill="black" opacity="0.5" r="2" /><circle cx="247.55682629180265" cy="210.3764399425652" data-id="2c0844ee" data-kind="endpoint" fill="black" opacity="0.5" r="2" /><circle cx="170.20692443847656" cy="250.38929748535156" data-id="dd22d517" data-kind="endpoint" fill="black" opacity="0.5" r="2" /><circle cx="204.54974365234375" cy="189.4735107421875" data-id="313965f4" data-kind="endpoint" fill="black" opacity="0.5" r="2" /><circle cx="84.89924621582031" cy="140.2003936767578" data-id="019dd821" data-kind="endpoint" fill="black" opacity="0.5" r="2" /><circle cx="104.39102172851562" cy="106.8843765258789" data-id="7c16ab9c" data-kind="endpoint" fill="black" opacity="0.5" r="2" /><circle cx="258.83856201171875" cy="171.72425842285156" data-id="5111eccc" data-kind="endpoint" fill="black" opacity="0.5" r="2" /><circle cx="248.8089599609375" cy="207.4184112548828" data-id="5dc18df7" data-kind="endpoint" fill="black" opacity="0.5" r="2" /><circle cx="243.68944625892905" cy="131.86566133009242" data-id="ae2062a7" data-kind="endpoint" fill="black" opacity="0.5" r="2" /><circle cx="244.8031592804211" cy="204.36763050421402" data-id="5871484e" data-kind="endpoint" fill="black" opacity="0.5" r="2" /><circle cx="239.37745211749015" cy="123.92493850001757" data-id="62800b80" data-kind="endpoint" fill="black" opacity="0.5" r="2" /><circle cx="96.87579385393833" cy="124.2770171055855" data-id="058e344f" data-kind="endpoint" fill="black" opacity="0.5" r="2" /><circle cx="85.95305633544922" cy="174.99192810058594" data-id="1041051d" data-kind="endpoint" fill="black" opacity="0.5" r="2" /><circle cx="94.30476379394531" cy="204.3949432373047" data-id="32b66218" data-kind="endpoint" fill="black" opacity="0.5" r="2" /><circle cx="163.90760803222656" cy="165.19679260253906" data-id="d4a1d689" data-kind="endpoint" fill="black" opacity="0.5" r="2" /><circle cx="95.30859375" cy="126.18132019042969" data-id="4ad3781b" data-kind="endpoint" fill="black" opacity="0.5" r="2" /><circle cx="138.09500122070312" cy="244.52281188964844" data-id="bc93296b" data-kind="endpoint" fill="black" opacity="0.5" r="2" /><circle cx="168.1263885498047" cy="250.6181640625" data-id="bdddb8c5" data-kind="endpoint" fill="black" opacity="0.5" r="2" /><circle cx="226.6693878173828" cy="235.21017456054688" data-id="26ba3477" data-kind="endpoint" fill="black" opacity="0.5" r="2" /><circle cx="189.60183715820312" cy="253.5826416015625" data-id="37090348" data-kind="endpoint" fill="black" opacity="0.5" r="2" /><circle cx="181.82286071777344" cy="250.46543884277344" data-id="1d57555d" data-kind="endpoint" fill="black" opacity="0.5" r="2" /><circle cx="210.75137329101562" cy="241.01170349121094" data-id="ca22fa64" data-kind="endpoint" fill="black" opacity="0.5" r="2" /><circle cx="248.3905792236328" cy="200.6849822998047" data-id="f2fcfad1" data-kind="endpoint" fill="black" opacity="0.5" r="2" /><circle cx="254.33460998535156" cy="174.36587524414062" data-id="8437c729" data-kind="endpoint" fill="black" opacity="0.5" r="2" /><circle cx="203.9298858642578" cy="187.66905212402344" data-id="329a1033" data-kind="endpoint" fill="black" opacity="0.5" r="2" /><circle cx="174.704833984375" cy="171.28659057617188" data-id="5493f5c0" data-kind="endpoint" fill="black" opacity="0.5" r="2" /><circle cx="177.9402682012579" cy="247.81219407227016" data-id="b0c3ee7c" data-kind="endpoint" fill="black" opacity="0.5" r="2" /><circle cx="241.8629577544086" cy="210.59949827422656" data-id="95da9aa1" data-kind="endpoint" fill="black" opacity="0.5" r="2" /><circle cx="241.48008728027344" cy="131.10752868652344" data-id="bb72afed" data-kind="endpoint" fill="black" opacity="0.5" r="2" /><circle cx="210.39202880859375" cy="186.19891357421875" data-id="bf0e7959" data-kind="endpoint" fill="black" opacity="0.5" r="2" /><circle cx="175.93148803710938" cy="79.40731811523438" data-id="1e91cdb1" data-kind="endpoint" fill="black" opacity="0.5" r="2" /><circle cx="204.74386596679688" cy="86.65951538085938" data-id="1e922d16" data-kind="endpoint" fill="black" opacity="0.5" r="2" /><circle cx="94.13780212402344" cy="128.0563201904297" data-id="71eaacf3" data-kind="endpoint" fill="black" opacity="0.5" r="2" /><circle cx="85.63895416259766" cy="157.40509033203125" data-id="24e41b6d" data-kind="endpoint" fill="black" opacity="0.5" r="2" /><circle cx="111.7879638671875" cy="100.48583221435547" data-id="08032736" data-kind="endpoint" fill="black" opacity="0.5" r="2" /><circle cx="136.1658935546875" cy="85.2398681640625" data-id="34adf4bb" data-kind="endpoint" fill="black" opacity="0.5" r="2" /><circle cx="204.32467651367188" cy="85.69613647460938" data-id="e76442a3" data-kind="endpoint" fill="black" opacity="0.5" r="2" /><circle cx="234.68377685546875" cy="107.17139434814453" data-id="efb3456b" data-kind="endpoint" fill="black" opacity="0.5" r="2" /><circle cx="135.79229736328125" cy="247.8873748779297" data-id="9f78af4b" data-kind="endpoint" fill="black" opacity="0.5" r="2" /><circle cx="113.34683227539062" cy="232.08543395996094" data-id="c0e147dd" data-kind="endpoint" fill="black" opacity="0.5" r="2" /><circle cx="115.21727752685547" cy="230.07174682617188" data-id="30f67c87" data-kind="endpoint" fill="black" opacity="0.5" r="2" /><circle cx="141.69622802734375" cy="245.5666046142578" data-id="3680fdea" data-kind="endpoint" fill="black" opacity="0.5" r="2" /><circle cx="313.7829895019531" cy="244.7283172607422" data-id="2684bb7e" data-kind="endpoint" fill="black" opacity="0.5" r="2" /><circle cx="254.89601135253906" cy="146.06007385253906" data-id="aa521b8f" data-kind="endpoint" fill="black" opacity="0.5" r="2" /><circle cx="219.5137939453125" cy="99.10203552246094" data-id="fe5248ad" data-kind="endpoint" fill="black" opacity="0.5" r="2" /><circle cx="195.60935974121094" cy="86.94739532470703" data-id="28d08963" data-kind="endpoint" fill="black" opacity="0.5" r="2" /><circle cx="240.6849365234375" cy="120.56623840332031" data-id="426ecce8" data-kind="endpoint" fill="black" opacity="0.5" r="2" /><circle cx="219.0458526611328" cy="98.49650573730469" data-id="6ce6ee25" data-kind="endpoint" fill="black" opacity="0.5" r="2" /><circle cx="212.50437927246094" cy="175.2706756591797" data-id="1c5e1af0" data-kind="endpoint" fill="black" opacity="0.5" r="2" /><circle cx="239.94776916503906" cy="127.20201110839844" data-id="931c23dc" data-kind="endpoint" fill="black" opacity="0.5" r="2" /><circle cx="207.64804077148438" cy="191.0630340576172" data-id="beaeb9c7" data-kind="endpoint" fill="black" opacity="0.5" r="2" /><circle cx="177.30224609375" cy="244.61709594726562" data-id="b080fde8" data-kind="endpoint" fill="black" opacity="0.5" r="2" /><circle cx="209.60209968805154" cy="188.97293190417145" data-id="e165c055" data-kind="endpoint" fill="black" opacity="0.5" r="2" /><circle cx="240.76884489761053" cy="206.61983437025236" data-id="462260ec" data-kind="endpoint" fill="black" opacity="0.5" r="2" /><circle cx="103.6594009399414" cy="127.17135620117188" data-id="3277a890" data-kind="endpoint" fill="black" opacity="0.5" r="2" /><circle cx="147.5006866455078" cy="151.7390899658203" data-id="f2b85394" data-kind="endpoint" fill="black" opacity="0.5" r="2" /><circle cx="192.8862327303463" cy="251.95473664626397" data-id="508d00fc" data-kind="intersection" fill="black" opacity="0.5" r="2" /><circle cx="140.8776580756881" cy="245.08759677026222" data-id="a86ee75d" data-kind="intersection" fill="black" opacity="0.5" r="2" /><circle cx="170.0" cy="167.0" data-id="8dccaebc" data-kind="center" fill="black" r="3" /><circle cx="139.0" cy="185.0" data-id="35d472c4" data-kind="center" fill="black" r="3" /><circle cx="193.0" cy="203.0" data-id="cba5b4cd" data-kind="center" fill="black" r="3" /><circle cx="211.0" cy="169.0" data-id="432c58af" data-kind="center" fill="black" r="3" /><circle cx="139.0" cy="143.0" data-id="8a02b787" data-kind="center" fill="black" r="3" /><circle cx="230.0" cy="251.0" data-id="a7e5250b" data-kind="center" fill="black" r="3" /><circle cx="166.0" cy="110.0" data-id="bd7e85c2" data-kind="center" fill="black" r="3" /></g><g fill="black" font-family="Arial" font-size="14px" id="labels" /></svg>