<?xml version="1.0" encoding="utf-8" ?>
<svg baseProfile="full" height="284px" version="1.1" viewBox="0 0 351 284" width="351px" xmlns="http://www.w3.org/2000/svg" xmlns:ev="http://www.w3.org/2001/xml-events" xmlns:xlink="http://www.w3.org/1999/xlink"><title>Mathematical Diagram</title><desc>Generated by PNG2SVG system</desc><defs><marker id="arrow" markerHeight="8" markerUnits="strokeWidth" markerWidth="8" orient="auto" refX="8" refY="4"><path d="M0,0 L8,4 L0,8 L3,4 z" fill="black" /></marker><marker id="right_angle" markerHeight="10" markerUnits="userSpaceOnUse" markerWidth="10" refX="0" refY="0"><rect fill="none" height="10" stroke="black" stroke-width="1" width="10" x="0" y="0" /></marker><pattern height="10" id="tick_1" patternUnits="userSpaceOnUse" width="20"><line stroke="black" stroke-width="1" x1="5" x2="5" y1="0" y2="10" /></pattern><pattern height="10" id="tick_2" patternUnits="userSpaceOnUse" width="20"><line stroke="black" stroke-width="1" x1="5" x2="5" y1="0" y2="10" /><line stroke="black" stroke-width="1" x1="9" x2="9" y1="0" y2="10" /></pattern><pattern height="10" id="tick_3" patternUnits="userSpaceOnUse" width="20"><line stroke="black" stroke-width="1" x1="5" x2="5" y1="0" y2="10" /><line stroke="black" stroke-width="1" x1="9" x2="9" y1="0" y2="10" /><line stroke="black" stroke-width="1" x1="13" x2="13" y1="0" y2="10" /></pattern><style type="text/css"><![CDATA[
        .dashed { stroke-dasharray: 6,6; }
        .dotted { stroke-dasharray: 2,2; }
        .hidden { stroke-dasharray: 4,2; opacity: 0.5; }
        .thick { stroke-width: 3; }
        .thin { stroke-width: 1; }
        .label { font-family: Arial, sans-serif; font-size: 14px; }
        .angle-label { font-size: 12px; font-style: italic; }
        .length-label { font-size: 11px; }
    ]]></style></defs><defs><marker id="arrow" markerHeight="8" markerUnits="strokeWidth" markerWidth="8" orient="auto" refX="8" refY="4"><path d="M0,0 L8,4 L0,8 L3,4 z" fill="black" /></marker><marker id="right_angle" markerHeight="10" markerUnits="userSpaceOnUse" markerWidth="10" refX="0" refY="0"><rect fill="none" height="10" stroke="black" stroke-width="1" width="10" x="0" y="0" /></marker><pattern height="10" id="tick_1" patternUnits="userSpaceOnUse" width="20"><line stroke="black" stroke-width="1" x1="5" x2="5" y1="0" y2="10" /></pattern><pattern height="10" id="tick_2" patternUnits="userSpaceOnUse" width="20"><line stroke="black" stroke-width="1" x1="5" x2="5" y1="0" y2="10" /><line stroke="black" stroke-width="1" x1="9" x2="9" y1="0" y2="10" /></pattern><pattern height="10" id="tick_3" patternUnits="userSpaceOnUse" width="20"><line stroke="black" stroke-width="1" x1="5" x2="5" y1="0" y2="10" /><line stroke="black" stroke-width="1" x1="9" x2="9" y1="0" y2="10" /><line stroke="black" stroke-width="1" x1="13" x2="13" y1="0" y2="10" /></pattern><style type="text/css"><![CDATA[
        .dashed { stroke-dasharray: 6,6; }
        .dotted { stroke-dasharray: 2,2; }
        .hidden { stroke-dasharray: 4,2; opacity: 0.5; }
        .thick { stroke-width: 3; }
        .thin { stroke-width: 1; }
        .label { font-family: Arial, sans-serif; font-size: 14px; }
        .angle-label { font-size: 12px; font-style: italic; }
        .length-label { font-size: 11px; }
    ]]></style></defs><g fill="none" id="main" stroke="black" stroke-width="2"><line data-id="66cb6386" data-role="main" marker-end="url(#arrow)" x1="224.67579650878906" x2="193.24288940429688" y1="121.94823455810547" y2="113.91378021240234" /><line data-id="44fb047b" data-role="main" x1="168.12872314453125" x2="344.3721923828125" y1="112.07640838623047" y2="112.36168670654297" /><line data-type="tick_mark" stroke="black" stroke-width="1" x1="269.3593142073888" x2="264.16995215003305" y1="249.56680892266576" y2="246.5550782843655" /><line data-id="b955d105" data-role="main" data-tick-marks="1" x1="274.62371826171875" x2="258.9055480957031" y1="234.51934814453125" y2="261.6025390625" /><line data-id="93900613" data-role="main" x1="268.69921875" x2="278.69744873046875" y1="159.97239685058594" y2="187.9202117919922" /><line data-id="fdd91ae5" data-role="main" x1="265.63593939502175" x2="264.805625793039" y1="161.87511908804828" y2="240.64271095468723" /><line data-id="c0972ef4" data-role="main" x1="263.78478451332245" x2="227.8310513046703" y1="247.75700923434997" y2="183.84002390621876" /><line data-id="10572f59" data-role="main" x1="181.50888975065067" x2="109.06029229785752" y1="206.51298379265367" y2="247.57650921183986" /><line data-id="f46985ed" data-role="main" x1="345.593994140625" x2="269.69091796875" y1="115.57041931152344" y2="158.68124389648438" /><line data-id="fc16a71e" data-role="main" x1="113.21734619140625" x2="100.3678207397461" y1="260.57305908203125" y2="237.7225341796875" /><line data-id="d75ecaf0" data-role="main" x1="189.46014404296875" x2="157.9444122314453" y1="296.2516174316406" y2="291.9472351074219" /><line data-id="8714771a" data-role="main" x1="144.3106689453125" x2="175.19442749023438" y1="283.35107421875" y2="292.1383056640625" /><line data-id="fc6fd866" data-role="main" x1="336.8740539550781" x2="213.12095642089844" y1="115.79110717773438" y2="115.08119201660156" /><line data-id="a42ccd11" data-role="main" x1="270.8885498046875" x2="276.27142333984375" y1="234.42626953125" y2="206.75758361816406" /><line data-id="ae57e035" data-role="main" x1="191.50592041015625" x2="226.22535705566406" y1="116.37693786621094" y2="177.7855682373047" /><line data-id="79b621b0" data-role="main" x1="159.63201904296875" x2="136.53155517578125" y1="292.59814453125" y2="281.32904052734375" /><line data-id="fa12852e" data-role="main" x1="224.83233642578125" x2="193.17764282226562" y1="183.92747497558594" y2="201.96737670898438" /><line data-id="b18824e8" data-role="main" x1="103.19305419921875" x2="97.55413818359375" y1="171.6197509765625" y2="197.73178100585938" /><line data-id="d5c20a1a" data-role="main" x1="94.1016616821289" x2="106.4659423828125" y1="189.26869201660156" y2="157.47970581054688" /><line data-id="b6154c75" data-role="main" x1="279.58123779296875" x2="273.3374328613281" y1="210.3705291748047" y2="235.98153686523438" /><line data-id="dee8a3da" data-role="main" x1="181.93687438964844" x2="156.8905792236328" y1="114.70084381103516" y2="119.45703125" /><line data-id="3fb2b585" data-role="main" x1="277.1927490234375" x2="270.0530090332031" y1="208.07008361816406" y2="166.75782775878906" /><line data-id="053fcb77" data-role="main" x1="113.15707397460938" x2="102.09454345703125" y1="153.14068603515625" y2="175.75967407226562" /><line data-id="0636d5bb" data-role="main" x1="99.87699127197266" x2="93.84353637695312" y1="238.02418518066406" y2="207.98069763183594" /><line data-id="4715b2f5" data-role="main" x1="194.8196563720703" x2="225.671630859375" y1="292.37921142578125" y2="284.5589599609375" /><line data-id="1f938b96" data-role="main" x1="109.90484712059563" x2="185.55795729425927" y1="244.69053143645402" y2="117.3425795712412" /><line data-id="1c7b76f7" data-role="main" x1="215.06375122070312" x2="239.83383178710938" y1="115.42121887207031" y2="127.15653991699219" /><line data-id="1a97eb4f" data-role="main" x1="127.7545166015625" x2="150.65097045898438" y1="271.23504638671875" y2="285.1404724121094" /><line data-id="37b3b53e" data-role="main" x1="141.30874633789062" x2="112.79873657226562" y1="126.26370239257812" y2="152.6733856201172" /><line data-id="e67d12c0" data-role="main" x1="138.4391326904297" x2="113.54059600830078" y1="284.02911376953125" y2="261.4173583984375" /><line data-id="6e74bb53" data-role="main" x1="251.653564453125" x2="226.918701171875" y1="140.94378662109375" y2="123.76253509521484" /><line data-id="819261e1" data-role="main" x1="263.5391584466406" x2="228.89224708618968" y1="160.09586560464123" y2="179.77525672278227" /><line data-id="74c09e85" data-role="main" x1="115.98385620117188" x2="151.78004455566406" y1="142.37612915039062" y2="116.74240112304688" /><line data-id="57f27a11" data-role="main" x1="217.6737060546875" x2="188.7892608642578" y1="169.6297149658203" y2="118.45561218261719" /><line data-id="2f5bed11" data-role="main" x1="267.55767822265625" x2="336.2835388183594" y1="155.86990356445312" y2="117.07714080810547" /><line data-id="2841c9d8" data-role="main" x1="258.4584045410156" x2="232.1836700439453" y1="262.1152038574219" y2="285.9650573730469" /><line data-id="6b7a56fa" data-role="main" x1="220.76541137695312" x2="251.218505859375" y1="286.4324951171875" y2="265.8529968261719" /><line data-id="8fa5f3fd" data-role="main" x1="110.463623046875" x2="127.67367553710938" y1="250.7633819580078" y2="270.8338623046875" /><circle cx="187.0" cy="203.0" data-id="78ba37b8" data-role="main" r="91.0" /><circle cx="212.0" cy="229.0" data-id="5ef31885" data-role="main" r="54.0" /><circle cx="247.0" cy="202.0" data-id="4d732faf" data-role="main" r="34.0" /></g><g fill="none" id="auxiliary" stroke="gray" stroke-width="1"><line data-id="5b92eda9" data-role="aux" stroke-dasharray="6,6" x1="100.58294677734375" x2="117.25196075439453" y1="165.59339904785156" y2="143.40823364257812" /></g><g fill="none" id="symbols" stroke="black" stroke-width="1"><circle cx="224.67579650878906" cy="121.94823455810547" data-id="58c6adb2" data-kind="endpoint" fill="black" opacity="0.5" r="2" /><circle cx="193.24288940429688" cy="113.91378021240234" data-id="e4884488" data-kind="endpoint" fill="black" opacity="0.5" r="2" /><circle cx="168.12872314453125" cy="112.07640838623047" data-id="8bcda167" data-kind="endpoint" fill="black" opacity="0.5" r="2" /><circle cx="344.3721923828125" cy="112.36168670654297" data-id="7a587765" data-kind="endpoint" fill="black" opacity="0.5" r="2" /><circle cx="274.62371826171875" cy="234.51934814453125" data-id="d21878a2" data-kind="endpoint" fill="black" opacity="0.5" r="2" /><circle cx="258.9055480957031" cy="261.6025390625" data-id="3dacfe89" data-kind="endpoint" fill="black" opacity="0.5" r="2" /><circle cx="268.69921875" cy="159.97239685058594" data-id="4aa052b0" data-kind="endpoint" fill="black" opacity="0.5" r="2" /><circle cx="278.69744873046875" cy="187.9202117919922" data-id="bd8329a2" data-kind="endpoint" fill="black" opacity="0.5" r="2" /><circle cx="265.63593939502175" cy="161.87511908804828" data-id="a872129d" data-kind="endpoint" fill="black" opacity="0.5" r="2" /><circle cx="264.805625793039" cy="240.64271095468723" data-id="22e4600a" data-kind="endpoint" fill="black" opacity="0.5" r="2" /><circle cx="263.78478451332245" cy="247.75700923434997" data-id="00192192" data-kind="endpoint" fill="black" opacity="0.5" r="2" /><circle cx="227.8310513046703" cy="183.84002390621876" data-id="e17121ac" data-kind="endpoint" fill="black" opacity="0.5" r="2" /><circle cx="181.50888975065067" cy="206.51298379265367" data-id="42d795f9" data-kind="endpoint" fill="black" opacity="0.5" r="2" /><circle cx="109.06029229785752" cy="247.57650921183986" data-id="c7727d07" data-kind="endpoint" fill="black" opacity="0.5" r="2" /><circle cx="345.593994140625" cy="115.57041931152344" data-id="903ee694" data-kind="endpoint" fill="black" opacity="0.5" r="2" /><circle cx="269.69091796875" cy="158.68124389648438" data-id="33e92f25" data-kind="endpoint" fill="black" opacity="0.5" r="2" /><circle cx="113.21734619140625" cy="260.57305908203125" data-id="46751a1f" data-kind="endpoint" fill="black" opacity="0.5" r="2" /><circle cx="100.3678207397461" cy="237.7225341796875" data-id="fc63628b" data-kind="endpoint" fill="black" opacity="0.5" r="2" /><circle cx="189.46014404296875" cy="296.2516174316406" data-id="bdb62e77" data-kind="endpoint" fill="black" opacity="0.5" r="2" /><circle cx="157.9444122314453" cy="291.9472351074219" data-id="eb624682" data-kind="endpoint" fill="black" opacity="0.5" r="2" /><circle cx="144.3106689453125" cy="283.35107421875" data-id="df54f24a" data-kind="endpoint" fill="black" opacity="0.5" r="2" /><circle cx="175.19442749023438" cy="292.1383056640625" data-id="a42f3501" data-kind="endpoint" fill="black" opacity="0.5" r="2" /><circle cx="336.8740539550781" cy="115.79110717773438" data-id="7985c9ee" data-kind="endpoint" fill="black" opacity="0.5" r="2" /><circle cx="213.12095642089844" cy="115.08119201660156" data-id="0143d275" data-kind="endpoint" fill="black" opacity="0.5" r="2" /><circle cx="270.8885498046875" cy="234.42626953125" data-id="7af96f4d" data-kind="endpoint" fill="black" opacity="0.5" r="2" /><circle cx="276.27142333984375" cy="206.75758361816406" data-id="7719f2ef" data-kind="endpoint" fill="black" opacity="0.5" r="2" /><circle cx="191.50592041015625" cy="116.37693786621094" data-id="27ad09d1" data-kind="endpoint" fill="black" opacity="0.5" r="2" /><circle cx="226.22535705566406" cy="177.7855682373047" data-id="cb83ad0a" data-kind="endpoint" fill="black" opacity="0.5" r="2" /><circle cx="159.63201904296875" cy="292.59814453125" data-id="d85b5044" data-kind="endpoint" fill="black" opacity="0.5" r="2" /><circle cx="136.53155517578125" cy="281.32904052734375" data-id="100ff0c4" data-kind="endpoint" fill="black" opacity="0.5" r="2" /><circle cx="224.83233642578125" cy="183.92747497558594" data-id="17916528" data-kind="endpoint" fill="black" opacity="0.5" r="2" /><circle cx="193.17764282226562" cy="201.96737670898438" data-id="8f410c65" data-kind="endpoint" fill="black" opacity="0.5" r="2" /><circle cx="103.19305419921875" cy="171.6197509765625" data-id="c4460e84" data-kind="endpoint" fill="black" opacity="0.5" r="2" /><circle cx="97.55413818359375" cy="197.73178100585938" data-id="f10c793f" data-kind="endpoint" fill="black" opacity="0.5" r="2" /><circle cx="94.1016616821289" cy="189.26869201660156" data-id="88138a1b" data-kind="endpoint" fill="black" opacity="0.5" r="2" /><circle cx="106.4659423828125" cy="157.47970581054688" data-id="0fdb1453" data-kind="endpoint" fill="black" opacity="0.5" r="2" /><circle cx="279.58123779296875" cy="210.3705291748047" data-id="8987c5fc" data-kind="endpoint" fill="black" opacity="0.5" r="2" /><circle cx="273.3374328613281" cy="235.98153686523438" data-id="a2626d36" data-kind="endpoint" fill="black" opacity="0.5" r="2" /><circle cx="181.93687438964844" cy="114.70084381103516" data-id="03d8b614" data-kind="endpoint" fill="black" opacity="0.5" r="2" /><circle cx="156.8905792236328" cy="119.45703125" data-id="3deb83e8" data-kind="endpoint" fill="black" opacity="0.5" r="2" /><circle cx="277.1927490234375" cy="208.07008361816406" data-id="355245d7" data-kind="endpoint" fill="black" opacity="0.5" r="2" /><circle cx="270.0530090332031" cy="166.75782775878906" data-id="a07503dd" data-kind="endpoint" fill="black" opacity="0.5" r="2" /><circle cx="113.15707397460938" cy="153.14068603515625" data-id="61089e66" data-kind="endpoint" fill="black" opacity="0.5" r="2" /><circle cx="102.09454345703125" cy="175.75967407226562" data-id="54593c15" data-kind="endpoint" fill="black" opacity="0.5" r="2" /><circle cx="99.87699127197266" cy="238.02418518066406" data-id="4fb1706e" data-kind="endpoint" fill="black" opacity="0.5" r="2" /><circle cx="93.84353637695312" cy="207.98069763183594" data-id="f921b5fd" data-kind="endpoint" fill="black" opacity="0.5" r="2" /><circle cx="194.8196563720703" cy="292.37921142578125" data-id="7500c9b0" data-kind="endpoint" fill="black" opacity="0.5" r="2" /><circle cx="225.671630859375" cy="284.5589599609375" data-id="eefe063d" data-kind="endpoint" fill="black" opacity="0.5" r="2" /><circle cx="109.90484712059563" cy="244.69053143645402" data-id="89175487" data-kind="endpoint" fill="black" opacity="0.5" r="2" /><circle cx="185.55795729425927" cy="117.3425795712412" data-id="6a71fd60" data-kind="endpoint" fill="black" opacity="0.5" r="2" /><circle cx="215.06375122070312" cy="115.42121887207031" data-id="b48c102b" data-kind="endpoint" fill="black" opacity="0.5" r="2" /><circle cx="239.83383178710938" cy="127.15653991699219" data-id="880f8cbf" data-kind="endpoint" fill="black" opacity="0.5" r="2" /><circle cx="100.58294677734375" cy="165.59339904785156" data-id="5069d24d" data-kind="endpoint" fill="black" opacity="0.5" r="2" /><circle cx="117.25196075439453" cy="143.40823364257812" data-id="41ec953d" data-kind="endpoint" fill="black" opacity="0.5" r="2" /><circle cx="127.7545166015625" cy="271.23504638671875" data-id="debb0f4d" data-kind="endpoint" fill="black" opacity="0.5" r="2" /><circle cx="150.65097045898438" cy="285.1404724121094" data-id="9fa0e0ba" data-kind="endpoint" fill="black" opacity="0.5" r="2" /><circle cx="141.30874633789062" cy="126.26370239257812" data-id="01b57715" data-kind="endpoint" fill="black" opacity="0.5" r="2" /><circle cx="112.79873657226562" cy="152.6733856201172" data-id="6ba3f043" data-kind="endpoint" fill="black" opacity="0.5" r="2" /><circle cx="138.4391326904297" cy="284.02911376953125" data-id="67b9b74a" data-kind="endpoint" fill="black" opacity="0.5" r="2" /><circle cx="113.54059600830078" cy="261.4173583984375" data-id="8fd2462b" data-kind="endpoint" fill="black" opacity="0.5" r="2" /><circle cx="251.653564453125" cy="140.94378662109375" data-id="06cf8591" data-kind="endpoint" fill="black" opacity="0.5" r="2" /><circle cx="226.918701171875" cy="123.76253509521484" data-id="baec7fc3" data-kind="endpoint" fill="black" opacity="0.5" r="2" /><circle cx="263.5391584466406" cy="160.09586560464123" data-id="2ac86f19" data-kind="endpoint" fill="black" opacity="0.5" r="2" /><circle cx="228.89224708618968" cy="179.77525672278227" data-id="29a3ead1" data-kind="endpoint" fill="black" opacity="0.5" r="2" /><circle cx="115.98385620117188" cy="142.37612915039062" data-id="76574fc0" data-kind="endpoint" fill="black" opacity="0.5" r="2" /><circle cx="151.78004455566406" cy="116.74240112304688" data-id="9c211baa" data-kind="endpoint" fill="black" opacity="0.5" r="2" /><circle cx="217.6737060546875" cy="169.6297149658203" data-id="67d5de90" data-kind="endpoint" fill="black" opacity="0.5" r="2" /><circle cx="188.7892608642578" cy="118.45561218261719" data-id="62d605de" data-kind="endpoint" fill="black" opacity="0.5" r="2" /><circle cx="267.55767822265625" cy="155.86990356445312" data-id="64eb7939" data-kind="endpoint" fill="black" opacity="0.5" r="2" /><circle cx="336.2835388183594" cy="117.07714080810547" data-id="4663027d" data-kind="endpoint" fill="black" opacity="0.5" r="2" /><circle cx="258.4584045410156" cy="262.1152038574219" data-id="6e2090ed" data-kind="endpoint" fill="black" opacity="0.5" r="2" /><circle cx="232.1836700439453" cy="285.9650573730469" data-id="11710c21" data-kind="endpoint" fill="black" opacity="0.5" r="2" /><circle cx="220.76541137695312" cy="286.4324951171875" data-id="49cd3a6c" data-kind="endpoint" fill="black" opacity="0.5" r="2" /><circle cx="251.218505859375" cy="265.8529968261719" data-id="9c45f4c2" data-kind="endpoint" fill="black" opacity="0.5" r="2" /><circle cx="110.463623046875" cy="250.7633819580078" data-id="eb83fd60" data-kind="endpoint" fill="black" opacity="0.5" r="2" /><circle cx="127.67367553710938" cy="270.8338623046875" data-id="5451d8a4" data-kind="endpoint" fill="black" opacity="0.5" r="2" /><circle cx="158.43510400588505" cy="292.0142532243791" data-id="80d25813" data-kind="intersection" fill="black" opacity="0.5" r="2" /><circle cx="102.4607147713203" cy="175.01098239053186" data-id="a65d8dee" data-kind="intersection" fill="black" opacity="0.5" r="2" /><circle cx="106.23702576153023" cy="158.06825822960317" data-id="17490aa6" data-kind="intersection" fill="black" opacity="0.5" r="2" /><circle cx="222.25705969948012" cy="285.4244736131016" data-id="dc7a8d6a" data-kind="intersection" fill="black" opacity="0.5" r="2" /><circle cx="187.0" cy="203.0" data-id="9ca97349" data-kind="center" fill="black" r="3" /><circle cx="212.0" cy="229.0" data-id="f657d33b" data-kind="center" fill="black" r="3" /><circle cx="247.0" cy="202.0" data-id="b066bac4" data-kind="center" fill="black" r="3" /></g><g fill="black" font-family="Arial" font-size="14px" id="labels" /></svg>