<?xml version="1.0" encoding="utf-8" ?>
<svg baseProfile="full" height="651px" version="1.1" viewBox="0 0 738 651" width="738px" xmlns="http://www.w3.org/2000/svg" xmlns:ev="http://www.w3.org/2001/xml-events" xmlns:xlink="http://www.w3.org/1999/xlink"><title>Mathematical Diagram</title><desc>Generated by PNG2SVG system</desc><defs><marker id="arrow" markerHeight="8" markerUnits="strokeWidth" markerWidth="8" orient="auto" refX="8" refY="4"><path d="M0,0 L8,4 L0,8 L3,4 z" fill="black" /></marker><marker id="right_angle" markerHeight="10" markerUnits="userSpaceOnUse" markerWidth="10" refX="0" refY="0"><rect fill="none" height="10" stroke="black" stroke-width="1" width="10" x="0" y="0" /></marker><pattern height="10" id="tick_1" patternUnits="userSpaceOnUse" width="20"><line stroke="black" stroke-width="1" x1="5" x2="5" y1="0" y2="10" /></pattern><pattern height="10" id="tick_2" patternUnits="userSpaceOnUse" width="20"><line stroke="black" stroke-width="1" x1="5" x2="5" y1="0" y2="10" /><line stroke="black" stroke-width="1" x1="9" x2="9" y1="0" y2="10" /></pattern><pattern height="10" id="tick_3" patternUnits="userSpaceOnUse" width="20"><line stroke="black" stroke-width="1" x1="5" x2="5" y1="0" y2="10" /><line stroke="black" stroke-width="1" x1="9" x2="9" y1="0" y2="10" /><line stroke="black" stroke-width="1" x1="13" x2="13" y1="0" y2="10" /></pattern><style type="text/css"><![CDATA[
        .dashed { stroke-dasharray: 6,6; }
        .dotted { stroke-dasharray: 2,2; }
        .hidden { stroke-dasharray: 4,2; opacity: 0.5; }
        .thick { stroke-width: 3; }
        .thin { stroke-width: 1; }
        .label { font-family: Arial, sans-serif; font-size: 14px; }
        .angle-label { font-size: 12px; font-style: italic; }
        .length-label { font-size: 11px; }
    ]]></style></defs><defs><marker id="arrow" markerHeight="8" markerUnits="strokeWidth" markerWidth="8" orient="auto" refX="8" refY="4"><path d="M0,0 L8,4 L0,8 L3,4 z" fill="black" /></marker><marker id="right_angle" markerHeight="10" markerUnits="userSpaceOnUse" markerWidth="10" refX="0" refY="0"><rect fill="none" height="10" stroke="black" stroke-width="1" width="10" x="0" y="0" /></marker><pattern height="10" id="tick_1" patternUnits="userSpaceOnUse" width="20"><line stroke="black" stroke-width="1" x1="5" x2="5" y1="0" y2="10" /></pattern><pattern height="10" id="tick_2" patternUnits="userSpaceOnUse" width="20"><line stroke="black" stroke-width="1" x1="5" x2="5" y1="0" y2="10" /><line stroke="black" stroke-width="1" x1="9" x2="9" y1="0" y2="10" /></pattern><pattern height="10" id="tick_3" patternUnits="userSpaceOnUse" width="20"><line stroke="black" stroke-width="1" x1="5" x2="5" y1="0" y2="10" /><line stroke="black" stroke-width="1" x1="9" x2="9" y1="0" y2="10" /><line stroke="black" stroke-width="1" x1="13" x2="13" y1="0" y2="10" /></pattern><style type="text/css"><![CDATA[
        .dashed { stroke-dasharray: 6,6; }
        .dotted { stroke-dasharray: 2,2; }
        .hidden { stroke-dasharray: 4,2; opacity: 0.5; }
        .thick { stroke-width: 3; }
        .thin { stroke-width: 1; }
        .label { font-family: Arial, sans-serif; font-size: 14px; }
        .angle-label { font-size: 12px; font-style: italic; }
        .length-label { font-size: 11px; }
    ]]></style></defs><g fill="none" id="main" stroke="black" stroke-width="2"><line data-id="ce6808e7" data-role="main" x1="559.3657836914062" x2="596.8650512695312" y1="98.94844818115234" y2="99.11468505859375" /><line data-id="b03d2227" data-role="main" x1="366.8079833984375" x2="116.59830474853516" y1="127.39714050292969" y2="95.28065490722656" /><line data-id="495475b6" data-role="main" x1="151.99183654785156" x2="365.78936767578125" y1="94.70416259765625" y2="121.82951354980469" /><line data-id="f3d7bf1e" data-role="main" x1="479.37506103515625" x2="274.37506103515625" y1="279.64471435546875" y2="279.63897705078125" /><line data-id="de531538" data-role="main" x1="86.69388580322266" x2="82.14559173583984" y1="54.22724914550781" y2="98.28199005126953" /><line data-id="a9b92be7" data-role="main" x1="366.10986328125" x2="527.1202392578125" y1="121.66778564453125" y2="150.50567626953125" /><line data-id="415b2bc0" data-role="main" x1="532.6834106445312" x2="375.2953186035156" y1="156.84593200683594" y2="128.71974182128906" /><line data-type="tick_mark" stroke="black" stroke-width="1" x1="252.54482886582193" x2="258.29545738906086" y1="311.3970736605464" y2="313.10887726718795" /><line data-id="04bb0e5c" data-role="main" data-tick-marks="1" marker-end="url(#arrow)" x1="249.2207794189453" x2="261.6195068359375" y1="333.0791015625" y2="291.4268493652344" /><line data-id="cb57453f" data-role="main" x1="99.37519836425781" x2="475.6253967285156" y1="88.0197982788086" y2="87.95407104492188" /><line data-id="b520d9b6" data-role="main" x1="472.5903625488281" x2="460.7840881347656" y1="35.83320236206055" y2="76.3989028930664" /><line data-id="aeb76e08" data-role="main" x1="279.2564392089844" x2="253.03997802734375" y1="333.2698669433594" y2="336.0825500488281" /><line data-id="f64d9980" data-role="main" x1="551.7881469726562" x2="564.0563354492188" y1="145.5994415283203" y2="103.91333770751953" /><line data-id="62c3c2ec" data-role="main" x1="441.97509765625" x2="454.2840270996094" y1="333.1545715332031" y2="291.47894287109375" /><line data-type="tick_mark" stroke="black" stroke-width="1" x1="637.6097080685701" x2="631.8339564822112" y1="309.48423296783665" y2="307.8592118563821" /><line data-id="41424a5c" data-role="main" data-tick-marks="1" x1="638.1387329101562" x2="631.304931640625" y1="296.52716064453125" y2="320.8162841796875" /><line data-id="b9e16de0" data-role="main" x1="453.0743408203125" x2="465.38970947265625" y1="79.36003112792969" y2="37.686073303222656" /><line data-id="5a500807" data-role="main" x1="471.87554931640625" x2="141.8742218017578" y1="93.40729522705078" y2="93.21588134765625" /><line data-id="0abe021e" data-role="main" x1="284.3750915527344" x2="458.1256408691406" y1="274.1886291503906" y2="274.27227783203125" /><line data-id="143f40f3" data-role="main" x1="537.0927734375" x2="477.0829162597656" y1="160.15798950195312" y2="272.6527099609375" /><line data-id="0e1757f6" data-role="main" x1="471.77191162109375" x2="532.5850830078125" y1="271.153076171875" y2="157.17002868652344" /><line data-id="121a99a0" data-role="main" x1="316.26995849609375" x2="305.8376770019531" y1="140.36868286132812" y2="164.99462890625" /><line data-type="tick_mark" stroke="black" stroke-width="1" x1="187.51934298108264" x2="191.80770627428845" y1="187.40068112806816" y2="183.2042611937092" /><line data-id="d50c6da8" data-role="main" data-tick-marks="1" x1="275.6004333496094" x2="103.72661590576172" y1="273.12225341796875" y2="97.4826889038086" /><line data-id="6c8117aa" data-role="main" x1="114.34764862060547" x2="284.4102478027344" y1="100.67787170410156" y2="274.3665771484375" /><line data-id="d0e47837" data-role="main" x1="465.6329345703125" x2="366.37762451171875" y1="272.7199401855469" y2="126.81369018554688" /><line data-id="61a22515" data-role="main" x1="374.7600402832031" x2="471.4109802246094" y1="129.51390075683594" y2="271.741455078125" /><line data-id="f6a95700" data-role="main" x1="527.9329833984375" x2="472.8164978027344" y1="149.5408477783203" y2="93.40519714355469" /><line data-id="c520e819" data-role="main" x1="48.26837921142578" x2="84.91630554199219" y1="100.73567199707031" y2="53.25769805908203" /><line data-id="0c725fbe" data-role="main" x1="475.4361572265625" x2="545.2950439453125" y1="88.28302764892578" y2="159.6710968017578" /><line data-type="tick_mark" stroke="black" stroke-width="1" x1="466.2569586840776" x2="466.2328789624068" y1="283.2656949361726" y2="289.26564661656175" /><line data-id="e6698474" data-role="main" data-tick-marks="1" x1="449.36767578125" x2="483.1221618652344" y1="286.19793701171875" y2="286.3334045410156" /><line data-id="43fd84c8" data-role="main" x1="471.8867492675781" x2="446.8607482910156" y1="81.62079620361328" y2="81.91571807861328" /><line data-id="34a02f42" data-role="main" x1="473.1228332519531" x2="436.8659973144531" y1="335.3055725097656" y2="335.5522766113281" /><circle cx="316.0" cy="283.0" data-id="9b7db325" data-role="main" r="135.0" /><circle cx="295.0" cy="43.0" data-id="6291cf7b" data-role="main" r="176.0" /><circle cx="457.0" cy="183.0" data-id="cda68210" data-role="main" r="80.0" /><circle cx="367.0" cy="299.0" data-id="73f84b9d" data-role="main" r="103.0" /><circle cx="101.0" cy="316.0" data-id="b4ece704" data-role="main" r="30.0" /><circle cx="656.0" cy="317.0" data-id="896e2abc" data-role="main" r="31.0" /><circle cx="321.0" cy="163.0" data-id="3e8cf0c3" data-role="main" r="22.0" /><circle cx="473.0" cy="53.0" data-id="2d5b5de0" data-role="main" r="27.0" /><circle cx="289.0" cy="133.0" data-id="64a780f4" data-role="main" r="45.0" /></g><g fill="none" id="auxiliary" stroke="gray" stroke-width="1" /><g fill="none" id="symbols" stroke="black" stroke-width="1"><circle cx="559.3657836914062" cy="98.94844818115234" data-id="ee2aa203" data-kind="endpoint" fill="black" opacity="0.5" r="2" /><circle cx="596.8650512695312" cy="99.11468505859375" data-id="d67a62bf" data-kind="endpoint" fill="black" opacity="0.5" r="2" /><circle cx="366.8079833984375" cy="127.39714050292969" data-id="69d20b60" data-kind="endpoint" fill="black" opacity="0.5" r="2" /><circle cx="116.59830474853516" cy="95.28065490722656" data-id="a565c3ea" data-kind="endpoint" fill="black" opacity="0.5" r="2" /><circle cx="151.99183654785156" cy="94.70416259765625" data-id="d87c0d99" data-kind="endpoint" fill="black" opacity="0.5" r="2" /><circle cx="365.78936767578125" cy="121.82951354980469" data-id="1c804f9b" data-kind="endpoint" fill="black" opacity="0.5" r="2" /><circle cx="479.37506103515625" cy="279.64471435546875" data-id="e9c91e82" data-kind="endpoint" fill="black" opacity="0.5" r="2" /><circle cx="274.37506103515625" cy="279.63897705078125" data-id="7205a7c3" data-kind="endpoint" fill="black" opacity="0.5" r="2" /><circle cx="86.69388580322266" cy="54.22724914550781" data-id="e8eb14c8" data-kind="endpoint" fill="black" opacity="0.5" r="2" /><circle cx="82.14559173583984" cy="98.28199005126953" data-id="a7205e59" data-kind="endpoint" fill="black" opacity="0.5" r="2" /><circle cx="366.10986328125" cy="121.66778564453125" data-id="4c114803" data-kind="endpoint" fill="black" opacity="0.5" r="2" /><circle cx="527.1202392578125" cy="150.50567626953125" data-id="df208640" data-kind="endpoint" fill="black" opacity="0.5" r="2" /><circle cx="532.6834106445312" cy="156.84593200683594" data-id="eaa490e9" data-kind="endpoint" fill="black" opacity="0.5" r="2" /><circle cx="375.2953186035156" cy="128.71974182128906" data-id="09d394c1" data-kind="endpoint" fill="black" opacity="0.5" r="2" /><circle cx="249.2207794189453" cy="333.0791015625" data-id="7ac8c462" data-kind="endpoint" fill="black" opacity="0.5" r="2" /><circle cx="261.6195068359375" cy="291.4268493652344" data-id="c680dced" data-kind="endpoint" fill="black" opacity="0.5" r="2" /><circle cx="99.37519836425781" cy="88.0197982788086" data-id="43765b1c" data-kind="endpoint" fill="black" opacity="0.5" r="2" /><circle cx="475.6253967285156" cy="87.95407104492188" data-id="093a55bb" data-kind="endpoint" fill="black" opacity="0.5" r="2" /><circle cx="472.5903625488281" cy="35.83320236206055" data-id="b32c4a68" data-kind="endpoint" fill="black" opacity="0.5" r="2" /><circle cx="460.7840881347656" cy="76.3989028930664" data-id="4fccc4a0" data-kind="endpoint" fill="black" opacity="0.5" r="2" /><circle cx="279.2564392089844" cy="333.2698669433594" data-id="a028a67a" data-kind="endpoint" fill="black" opacity="0.5" r="2" /><circle cx="253.03997802734375" cy="336.0825500488281" data-id="093c1785" data-kind="endpoint" fill="black" opacity="0.5" r="2" /><circle cx="551.7881469726562" cy="145.5994415283203" data-id="d71337cf" data-kind="endpoint" fill="black" opacity="0.5" r="2" /><circle cx="564.0563354492188" cy="103.91333770751953" data-id="c14cbde0" data-kind="endpoint" fill="black" opacity="0.5" r="2" /><circle cx="441.97509765625" cy="333.1545715332031" data-id="1eba4f31" data-kind="endpoint" fill="black" opacity="0.5" r="2" /><circle cx="454.2840270996094" cy="291.47894287109375" data-id="46302b80" data-kind="endpoint" fill="black" opacity="0.5" r="2" /><circle cx="638.1387329101562" cy="296.52716064453125" data-id="7a370fb4" data-kind="endpoint" fill="black" opacity="0.5" r="2" /><circle cx="631.304931640625" cy="320.8162841796875" data-id="74847b62" data-kind="endpoint" fill="black" opacity="0.5" r="2" /><circle cx="453.0743408203125" cy="79.36003112792969" data-id="f77bff53" data-kind="endpoint" fill="black" opacity="0.5" r="2" /><circle cx="465.38970947265625" cy="37.686073303222656" data-id="cd76b33d" data-kind="endpoint" fill="black" opacity="0.5" r="2" /><circle cx="471.87554931640625" cy="93.40729522705078" data-id="dbc83805" data-kind="endpoint" fill="black" opacity="0.5" r="2" /><circle cx="141.8742218017578" cy="93.21588134765625" data-id="abb8f8b5" data-kind="endpoint" fill="black" opacity="0.5" r="2" /><circle cx="284.3750915527344" cy="274.1886291503906" data-id="a276ab72" data-kind="endpoint" fill="black" opacity="0.5" r="2" /><circle cx="458.1256408691406" cy="274.27227783203125" data-id="20a8f108" data-kind="endpoint" fill="black" opacity="0.5" r="2" /><circle cx="537.0927734375" cy="160.15798950195312" data-id="9aef025c" data-kind="endpoint" fill="black" opacity="0.5" r="2" /><circle cx="477.0829162597656" cy="272.6527099609375" data-id="9832170f" data-kind="endpoint" fill="black" opacity="0.5" r="2" /><circle cx="471.77191162109375" cy="271.153076171875" data-id="69ffa429" data-kind="endpoint" fill="black" opacity="0.5" r="2" /><circle cx="532.5850830078125" cy="157.17002868652344" data-id="75440284" data-kind="endpoint" fill="black" opacity="0.5" r="2" /><circle cx="316.26995849609375" cy="140.36868286132812" data-id="a845e559" data-kind="endpoint" fill="black" opacity="0.5" r="2" /><circle cx="305.8376770019531" cy="164.99462890625" data-id="c1e89df5" data-kind="endpoint" fill="black" opacity="0.5" r="2" /><circle cx="275.6004333496094" cy="273.12225341796875" data-id="f4794764" data-kind="endpoint" fill="black" opacity="0.5" r="2" /><circle cx="103.72661590576172" cy="97.4826889038086" data-id="5ecf3ade" data-kind="endpoint" fill="black" opacity="0.5" r="2" /><circle cx="114.34764862060547" cy="100.67787170410156" data-id="1f6d2e81" data-kind="endpoint" fill="black" opacity="0.5" r="2" /><circle cx="284.4102478027344" cy="274.3665771484375" data-id="228f6500" data-kind="endpoint" fill="black" opacity="0.5" r="2" /><circle cx="465.6329345703125" cy="272.7199401855469" data-id="ac1770ec" data-kind="endpoint" fill="black" opacity="0.5" r="2" /><circle cx="366.37762451171875" cy="126.81369018554688" data-id="12cdf8f6" data-kind="endpoint" fill="black" opacity="0.5" r="2" /><circle cx="374.7600402832031" cy="129.51390075683594" data-id="a2c9a25f" data-kind="endpoint" fill="black" opacity="0.5" r="2" /><circle cx="471.4109802246094" cy="271.741455078125" data-id="5fcacafd" data-kind="endpoint" fill="black" opacity="0.5" r="2" /><circle cx="527.9329833984375" cy="149.5408477783203" data-id="33b5ddc1" data-kind="endpoint" fill="black" opacity="0.5" r="2" /><circle cx="472.8164978027344" cy="93.40519714355469" data-id="d1ce66ea" data-kind="endpoint" fill="black" opacity="0.5" r="2" /><circle cx="48.26837921142578" cy="100.73567199707031" data-id="d3872f79" data-kind="endpoint" fill="black" opacity="0.5" r="2" /><circle cx="84.91630554199219" cy="53.25769805908203" data-id="b9e8bc1f" data-kind="endpoint" fill="black" opacity="0.5" r="2" /><circle cx="475.4361572265625" cy="88.28302764892578" data-id="f2b26e5a" data-kind="endpoint" fill="black" opacity="0.5" r="2" /><circle cx="545.2950439453125" cy="159.6710968017578" data-id="f0d58d80" data-kind="endpoint" fill="black" opacity="0.5" r="2" /><circle cx="449.36767578125" cy="286.19793701171875" data-id="19d25547" data-kind="endpoint" fill="black" opacity="0.5" r="2" /><circle cx="483.1221618652344" cy="286.3334045410156" data-id="fbb8190a" data-kind="endpoint" fill="black" opacity="0.5" r="2" /><circle cx="471.8867492675781" cy="81.62079620361328" data-id="dc234dff" data-kind="endpoint" fill="black" opacity="0.5" r="2" /><circle cx="446.8607482910156" cy="81.91571807861328" data-id="b7d1a7d3" data-kind="endpoint" fill="black" opacity="0.5" r="2" /><circle cx="473.1228332519531" cy="335.3055725097656" data-id="2e3af142" data-kind="endpoint" fill="black" opacity="0.5" r="2" /><circle cx="436.8659973144531" cy="335.5522766113281" data-id="724873d2" data-kind="endpoint" fill="black" opacity="0.5" r="2" /><circle cx="316.0" cy="283.0" data-id="2bcdfc6d" data-kind="center" fill="black" r="3" /><circle cx="295.0" cy="43.0" data-id="f3778540" data-kind="center" fill="black" r="3" /><circle cx="457.0" cy="183.0" data-id="bddc012a" data-kind="center" fill="black" r="3" /><circle cx="367.0" cy="299.0" data-id="e894e8a9" data-kind="center" fill="black" r="3" /><circle cx="101.0" cy="316.0" data-id="582b4696" data-kind="center" fill="black" r="3" /><circle cx="656.0" cy="317.0" data-id="1b523be5" data-kind="center" fill="black" r="3" /><circle cx="321.0" cy="163.0" data-id="60489bb7" data-kind="center" fill="black" r="3" /><circle cx="473.0" cy="53.0" data-id="526189cb" data-kind="center" fill="black" r="3" /><circle cx="289.0" cy="133.0" data-id="f970b264" data-kind="center" fill="black" r="3" /></g><g fill="black" font-family="Arial" font-size="14px" id="labels"><text class="label" data-node="a7205e59" x="87.14559173583984" y="93.28199005126953">A</text><text class="label" data-node="526189cb" x="478.0" y="48.0">D</text></g></svg>