<?xml version="1.0" encoding="utf-8" ?>
<svg baseProfile="full" height="408px" version="1.1" viewBox="0 0 714 408" width="714px" xmlns="http://www.w3.org/2000/svg" xmlns:ev="http://www.w3.org/2001/xml-events" xmlns:xlink="http://www.w3.org/1999/xlink"><title>Mathematical Diagram</title><desc>Generated by PNG2SVG system</desc><defs><marker id="arrow" markerHeight="8" markerUnits="strokeWidth" markerWidth="8" orient="auto" refX="8" refY="4"><path d="M0,0 L8,4 L0,8 L3,4 z" fill="black" /></marker><marker id="right_angle" markerHeight="10" markerUnits="userSpaceOnUse" markerWidth="10" refX="0" refY="0"><rect fill="none" height="10" stroke="black" stroke-width="1" width="10" x="0" y="0" /></marker><pattern height="10" id="tick_1" patternUnits="userSpaceOnUse" width="20"><line stroke="black" stroke-width="1" x1="5" x2="5" y1="0" y2="10" /></pattern><pattern height="10" id="tick_2" patternUnits="userSpaceOnUse" width="20"><line stroke="black" stroke-width="1" x1="5" x2="5" y1="0" y2="10" /><line stroke="black" stroke-width="1" x1="9" x2="9" y1="0" y2="10" /></pattern><pattern height="10" id="tick_3" patternUnits="userSpaceOnUse" width="20"><line stroke="black" stroke-width="1" x1="5" x2="5" y1="0" y2="10" /><line stroke="black" stroke-width="1" x1="9" x2="9" y1="0" y2="10" /><line stroke="black" stroke-width="1" x1="13" x2="13" y1="0" y2="10" /></pattern><style type="text/css"><![CDATA[
        .dashed { stroke-dasharray: 6,6; }
        .dotted { stroke-dasharray: 2,2; }
        .hidden { stroke-dasharray: 4,2; opacity: 0.5; }
        .thick { stroke-width: 3; }
        .thin { stroke-width: 1; }
        .label { font-family: Arial, sans-serif; font-size: 14px; }
        .angle-label { font-size: 12px; font-style: italic; }
        .length-label { font-size: 11px; }
    ]]></style></defs><defs><marker id="arrow" markerHeight="8" markerUnits="strokeWidth" markerWidth="8" orient="auto" refX="8" refY="4"><path d="M0,0 L8,4 L0,8 L3,4 z" fill="black" /></marker><marker id="right_angle" markerHeight="10" markerUnits="userSpaceOnUse" markerWidth="10" refX="0" refY="0"><rect fill="none" height="10" stroke="black" stroke-width="1" width="10" x="0" y="0" /></marker><pattern height="10" id="tick_1" patternUnits="userSpaceOnUse" width="20"><line stroke="black" stroke-width="1" x1="5" x2="5" y1="0" y2="10" /></pattern><pattern height="10" id="tick_2" patternUnits="userSpaceOnUse" width="20"><line stroke="black" stroke-width="1" x1="5" x2="5" y1="0" y2="10" /><line stroke="black" stroke-width="1" x1="9" x2="9" y1="0" y2="10" /></pattern><pattern height="10" id="tick_3" patternUnits="userSpaceOnUse" width="20"><line stroke="black" stroke-width="1" x1="5" x2="5" y1="0" y2="10" /><line stroke="black" stroke-width="1" x1="9" x2="9" y1="0" y2="10" /><line stroke="black" stroke-width="1" x1="13" x2="13" y1="0" y2="10" /></pattern><style type="text/css"><![CDATA[
        .dashed { stroke-dasharray: 6,6; }
        .dotted { stroke-dasharray: 2,2; }
        .hidden { stroke-dasharray: 4,2; opacity: 0.5; }
        .thick { stroke-width: 3; }
        .thin { stroke-width: 1; }
        .label { font-family: Arial, sans-serif; font-size: 14px; }
        .angle-label { font-size: 12px; font-style: italic; }
        .length-label { font-size: 11px; }
    ]]></style></defs><g fill="none" id="main" stroke="black" stroke-width="2"><line data-id="c91d927c" data-role="main" x1="111.87533569335938" x2="478.1256408691406" y1="74.40875244140625" y2="74.31199645996094" /><line data-id="2b42d2c3" data-role="main" x1="371.91571044921875" x2="121.56430053710938" y1="112.80914306640625" y2="80.53511810302734" /><line data-id="c9013894" data-role="main" x1="533.9702758789062" x2="381.4436950683594" y1="141.6318359375" y2="114.28025817871094" /><line data-id="5daf2f56" data-role="main" x1="163.24642944335938" x2="371.6474914550781" y1="80.91983795166016" y2="107.41443634033203" /><line data-id="37af2797" data-role="main" x1="559.374267578125" x2="595.6246948242188" y1="85.12403106689453" y2="85.13731384277344" /><line data-id="4f3857ef" data-role="main" x1="371.80621337890625" x2="528.3924560546875" y1="107.2579116821289" y2="135.3861083984375" /><line data-id="8558fc43" data-role="main" x1="265.5248107910156" x2="290.7196350097656" y1="267.50604248046875" y2="268.8479919433594" /><line data-type="tick_mark" stroke="black" stroke-width="1" x1="470.00401106352984" x2="469.96608170990766" y1="264.9897297435647" y2="270.9896098560447" /><line data-id="ab4638dd" data-role="main" data-tick-marks="1" marker-end="url(#arrow)" x1="453.1107177734375" x2="486.859375" y1="267.88299560546875" y2="268.0963439941406" /><line data-id="65b602ad" data-role="main" x1="552.7494506835938" x2="564.5951538085938" y1="130.51531982421875" y2="89.95909881591797" /><line data-id="ca6ee2df" data-role="main" x1="475.624755859375" x2="154.3740997314453" y1="79.73300170898438" y2="79.5255355834961" /><line data-id="61c55a2a" data-role="main" x1="99.37845611572266" x2="94.93537139892578" y1="41.62394714355469" y2="85.80705261230469" /><line data-id="3657bbe2" data-role="main" x1="258.5207214355469" x2="270.38214111328125" y1="312.87286376953125" y2="272.68438720703125" /><line data-id="81e578fb" data-role="main" x1="446.1036071777344" x2="457.9002685546875" y1="312.898681640625" y2="272.69232177734375" /><line data-id="62b01954" data-role="main" x1="475.6755676269531" x2="463.8988952636719" y1="23.505889892578125" y2="63.71772766113281" /><line data-id="feeea28f" data-role="main" x1="487.12359619140625" x2="451.7752380371094" y1="66.74465942382812" y2="69.17232513427734" /><line data-id="be05bf4f" data-role="main" x1="475.6273193359375" x2="440.6106872558594" y1="315.93603515625" y2="316.1960144042969" /><line data-id="2f5428c5" data-role="main" x1="529.2601318359375" x2="475.49798583984375" y1="134.45947265625" y2="79.47132110595703" /><line data-id="074dcec9" data-role="main" x1="290.4807434082031" x2="110.86984252929688" y1="262.04638671875" y2="77.91683959960938" /><line data-id="38670c80" data-role="main" x1="456.7755126953125" x2="468.6449279785156" y1="65.59587860107422" y2="25.045421600341797" /><line data-id="56d98bce" data-role="main" x1="305.2987365722656" x2="317.41375732421875" y1="148.59237670898438" y2="124.64759063720703" /><line data-id="c896f5f4" data-role="main" x1="321.3734130859375" x2="313.135986328125" y1="127.96339416503906" y2="153.53126525878906" /><line data-id="5d013a87" data-role="main" x1="474.9177551269531" x2="533.731689453125" y1="252.7490234375" y2="142.11846923828125" /><line data-id="64db2499" data-role="main" x1="122.0101547241211" x2="293.0143737792969" y1="81.77332305908203" y2="257.0131530761719" /><line data-id="f8dff8f3" data-role="main" x1="469.05865478515625" x2="371.67657470703125" y1="255.4355010986328" y2="111.60567474365234" /><line data-type="tick_mark" stroke="black" stroke-width="1" x1="511.5172310570076" x2="506.2198600074455" y1="201.51157752637513" y2="198.69415672655455" /><line data-id="f794f3cd" data-role="main" data-tick-marks="1" x1="538.1475830078125" x2="479.5895080566406" y1="145.0518341064453" y2="255.15390014648438" /><line data-id="1ddb68cb" data-role="main" x1="380.3355407714844" x2="473.82122802734375" y1="114.97468566894531" y2="253.05734252929688" /><line data-id="e98529c0" data-role="main" x1="464.2746887207031" x2="493.30072021484375" y1="19.741838455200195" y2="21.5427303314209" /><line data-id="3c8ad26a" data-role="main" x1="68.59632873535156" x2="97.45870971679688" y1="78.20291137695312" y2="40.789608001708984" /><line data-id="bec604ed" data-role="main" x1="478.023681640625" x2="545.9266357421875" y1="74.44322967529297" y2="144.0501251220703" /><line data-id="c8742ab7" data-role="main" x1="483.12518310546875" x2="290.6249084472656" y1="261.4197998046875" y2="261.39874267578125" /><line data-id="6b888462" data-role="main" x1="293.1244812011719" x2="468.1254577636719" y1="256.3216552734375" y2="256.3671569824219" /><circle cx="463.0" cy="151.0" data-id="952ce27e" data-role="main" r="64.0" /><circle cx="339.0" cy="152.0" data-id="d7999d39" data-role="main" r="32.0" /><circle cx="653.0" cy="298.0" data-id="3bea619c" data-role="main" r="30.0" /></g><g fill="none" id="auxiliary" stroke="gray" stroke-width="1" /><g fill="none" id="symbols" stroke="black" stroke-width="1"><circle cx="111.87533569335938" cy="74.40875244140625" data-id="8d4f21e7" data-kind="endpoint" fill="black" opacity="0.5" r="2" /><circle cx="478.1256408691406" cy="74.31199645996094" data-id="918f66f1" data-kind="endpoint" fill="black" opacity="0.5" r="2" /><circle cx="371.91571044921875" cy="112.80914306640625" data-id="faca0bca" data-kind="endpoint" fill="black" opacity="0.5" r="2" /><circle cx="121.56430053710938" cy="80.53511810302734" data-id="e523e232" data-kind="endpoint" fill="black" opacity="0.5" r="2" /><circle cx="533.9702758789062" cy="141.6318359375" data-id="9547dc27" data-kind="endpoint" fill="black" opacity="0.5" r="2" /><circle cx="381.4436950683594" cy="114.28025817871094" data-id="231175e9" data-kind="endpoint" fill="black" opacity="0.5" r="2" /><circle cx="163.24642944335938" cy="80.91983795166016" data-id="75aff907" data-kind="endpoint" fill="black" opacity="0.5" r="2" /><circle cx="371.6474914550781" cy="107.41443634033203" data-id="ddb0513f" data-kind="endpoint" fill="black" opacity="0.5" r="2" /><circle cx="559.374267578125" cy="85.12403106689453" data-id="d95f59d1" data-kind="endpoint" fill="black" opacity="0.5" r="2" /><circle cx="595.6246948242188" cy="85.13731384277344" data-id="645d4904" data-kind="endpoint" fill="black" opacity="0.5" r="2" /><circle cx="371.80621337890625" cy="107.2579116821289" data-id="1e7668fb" data-kind="endpoint" fill="black" opacity="0.5" r="2" /><circle cx="528.3924560546875" cy="135.3861083984375" data-id="69c34ffb" data-kind="endpoint" fill="black" opacity="0.5" r="2" /><circle cx="265.5248107910156" cy="267.50604248046875" data-id="502276a8" data-kind="endpoint" fill="black" opacity="0.5" r="2" /><circle cx="290.7196350097656" cy="268.8479919433594" data-id="1a5e6738" data-kind="endpoint" fill="black" opacity="0.5" r="2" /><circle cx="453.1107177734375" cy="267.88299560546875" data-id="ab71b331" data-kind="endpoint" fill="black" opacity="0.5" r="2" /><circle cx="486.859375" cy="268.0963439941406" data-id="3da1d283" data-kind="endpoint" fill="black" opacity="0.5" r="2" /><circle cx="552.7494506835938" cy="130.51531982421875" data-id="afff5da6" data-kind="endpoint" fill="black" opacity="0.5" r="2" /><circle cx="564.5951538085938" cy="89.95909881591797" data-id="8ea94904" data-kind="endpoint" fill="black" opacity="0.5" r="2" /><circle cx="475.624755859375" cy="79.73300170898438" data-id="45fdb224" data-kind="endpoint" fill="black" opacity="0.5" r="2" /><circle cx="154.3740997314453" cy="79.5255355834961" data-id="3a325f68" data-kind="endpoint" fill="black" opacity="0.5" r="2" /><circle cx="99.37845611572266" cy="41.62394714355469" data-id="19c4ec53" data-kind="endpoint" fill="black" opacity="0.5" r="2" /><circle cx="94.93537139892578" cy="85.80705261230469" data-id="7104ed1d" data-kind="endpoint" fill="black" opacity="0.5" r="2" /><circle cx="258.5207214355469" cy="312.87286376953125" data-id="6af860d3" data-kind="endpoint" fill="black" opacity="0.5" r="2" /><circle cx="270.38214111328125" cy="272.68438720703125" data-id="ce75627f" data-kind="endpoint" fill="black" opacity="0.5" r="2" /><circle cx="446.1036071777344" cy="312.898681640625" data-id="c85d1395" data-kind="endpoint" fill="black" opacity="0.5" r="2" /><circle cx="457.9002685546875" cy="272.69232177734375" data-id="3c6559f9" data-kind="endpoint" fill="black" opacity="0.5" r="2" /><circle cx="475.6755676269531" cy="23.505889892578125" data-id="4de5b4e7" data-kind="endpoint" fill="black" opacity="0.5" r="2" /><circle cx="463.8988952636719" cy="63.71772766113281" data-id="d7b61f7a" data-kind="endpoint" fill="black" opacity="0.5" r="2" /><circle cx="487.12359619140625" cy="66.74465942382812" data-id="d3578f60" data-kind="endpoint" fill="black" opacity="0.5" r="2" /><circle cx="451.7752380371094" cy="69.17232513427734" data-id="e8bec26d" data-kind="endpoint" fill="black" opacity="0.5" r="2" /><circle cx="475.6273193359375" cy="315.93603515625" data-id="6c2f5b65" data-kind="endpoint" fill="black" opacity="0.5" r="2" /><circle cx="440.6106872558594" cy="316.1960144042969" data-id="5048a387" data-kind="endpoint" fill="black" opacity="0.5" r="2" /><circle cx="529.2601318359375" cy="134.45947265625" data-id="37e3e4ac" data-kind="endpoint" fill="black" opacity="0.5" r="2" /><circle cx="475.49798583984375" cy="79.47132110595703" data-id="b0c9824d" data-kind="endpoint" fill="black" opacity="0.5" r="2" /><circle cx="290.4807434082031" cy="262.04638671875" data-id="9876aa56" data-kind="endpoint" fill="black" opacity="0.5" r="2" /><circle cx="110.86984252929688" cy="77.91683959960938" data-id="8e2b7cbb" data-kind="endpoint" fill="black" opacity="0.5" r="2" /><circle cx="456.7755126953125" cy="65.59587860107422" data-id="61ecd915" data-kind="endpoint" fill="black" opacity="0.5" r="2" /><circle cx="468.6449279785156" cy="25.045421600341797" data-id="127e43fe" data-kind="endpoint" fill="black" opacity="0.5" r="2" /><circle cx="305.2987365722656" cy="148.59237670898438" data-id="ae67287f" data-kind="endpoint" fill="black" opacity="0.5" r="2" /><circle cx="317.41375732421875" cy="124.64759063720703" data-id="2c10fc2c" data-kind="endpoint" fill="black" opacity="0.5" r="2" /><circle cx="321.3734130859375" cy="127.96339416503906" data-id="4a691a64" data-kind="endpoint" fill="black" opacity="0.5" r="2" /><circle cx="313.135986328125" cy="153.53126525878906" data-id="0f641c61" data-kind="endpoint" fill="black" opacity="0.5" r="2" /><circle cx="474.9177551269531" cy="252.7490234375" data-id="a9bf6e0a" data-kind="endpoint" fill="black" opacity="0.5" r="2" /><circle cx="533.731689453125" cy="142.11846923828125" data-id="853eb541" data-kind="endpoint" fill="black" opacity="0.5" r="2" /><circle cx="122.0101547241211" cy="81.77332305908203" data-id="9ec71bb3" data-kind="endpoint" fill="black" opacity="0.5" r="2" /><circle cx="293.0143737792969" cy="257.0131530761719" data-id="5fd0fbc5" data-kind="endpoint" fill="black" opacity="0.5" r="2" /><circle cx="469.05865478515625" cy="255.4355010986328" data-id="cf63e58b" data-kind="endpoint" fill="black" opacity="0.5" r="2" /><circle cx="371.67657470703125" cy="111.60567474365234" data-id="4473a88b" data-kind="endpoint" fill="black" opacity="0.5" r="2" /><circle cx="538.1475830078125" cy="145.0518341064453" data-id="6983c91f" data-kind="endpoint" fill="black" opacity="0.5" r="2" /><circle cx="479.5895080566406" cy="255.15390014648438" data-id="24cb44db" data-kind="endpoint" fill="black" opacity="0.5" r="2" /><circle cx="380.3355407714844" cy="114.97468566894531" data-id="55176d38" data-kind="endpoint" fill="black" opacity="0.5" r="2" /><circle cx="473.82122802734375" cy="253.05734252929688" data-id="31af503b" data-kind="endpoint" fill="black" opacity="0.5" r="2" /><circle cx="464.2746887207031" cy="19.741838455200195" data-id="93cbd00a" data-kind="endpoint" fill="black" opacity="0.5" r="2" /><circle cx="493.30072021484375" cy="21.5427303314209" data-id="0d8cc10a" data-kind="endpoint" fill="black" opacity="0.5" r="2" /><circle cx="68.59632873535156" cy="78.20291137695312" data-id="58e2297a" data-kind="endpoint" fill="black" opacity="0.5" r="2" /><circle cx="97.45870971679688" cy="40.789608001708984" data-id="40bbadb3" data-kind="endpoint" fill="black" opacity="0.5" r="2" /><circle cx="478.023681640625" cy="74.44322967529297" data-id="7da80925" data-kind="endpoint" fill="black" opacity="0.5" r="2" /><circle cx="545.9266357421875" cy="144.0501251220703" data-id="758659f3" data-kind="endpoint" fill="black" opacity="0.5" r="2" /><circle cx="483.12518310546875" cy="261.4197998046875" data-id="46f9a788" data-kind="endpoint" fill="black" opacity="0.5" r="2" /><circle cx="290.6249084472656" cy="261.39874267578125" data-id="f30d7d04" data-kind="endpoint" fill="black" opacity="0.5" r="2" /><circle cx="293.1244812011719" cy="256.3216552734375" data-id="5cc0c95b" data-kind="endpoint" fill="black" opacity="0.5" r="2" /><circle cx="468.1254577636719" cy="256.3671569824219" data-id="c3de8f2b" data-kind="endpoint" fill="black" opacity="0.5" r="2" /><circle cx="463.0" cy="151.0" data-id="91c5cec1" data-kind="center" fill="black" r="3" /><circle cx="339.0" cy="152.0" data-id="9c7df5a3" data-kind="center" fill="black" r="3" /><circle cx="653.0" cy="298.0" data-id="022d9ed1" data-kind="center" fill="black" r="3" /></g><g fill="black" font-family="Arial" font-size="14px" id="labels"><text class="label" data-node="ce75627f" x="275.38214111328125" y="267.68438720703125">B</text><text class="label" data-node="4de5b4e7" x="480.6755676269531" y="18.505889892578125">D</text></g></svg>